<svg width="1280" height="720" viewBox="0 0 1280 720" fill="none" xmlns="http://www.w3.org/2000/svg">
<rect width="1280" height="720" fill="#E5E5E5"/>
<path fill-rule="evenodd" clip-rule="evenodd" d="M803 256C803 244.954 794.046 236 783 236H497C485.954 236 477 244.954 477 256V463C477 474.046 485.954 483 497 483H783C794.046 483 803 474.046 803 463V256ZM572.86 401.5C556.498 401.5 547.059 382.924 556.705 369.709L571.46 349.495C578.069 340.441 590.826 338.585 599.74 345.381L616.893 358.458C626.133 365.502 639.41 363.218 645.763 353.49L669.823 316.656C678.607 303.208 698.859 305.078 705.032 319.906L727.474 373.813C732.958 386.986 723.279 401.5 709.01 401.5H572.86Z" fill="#C4C4C4"/>
</svg>
